<?xml version="1.0" encoding="UTF-8"?>
<svg version="1.1" xmlns="http://www.w3.org/2000/svg" width="500" height="500">
<path d="M0 0 C2.65420359 1.57646169 5.08477873 3.31410417 7.546875 5.17578125 C9.72414201 6.79486357 11.88713852 8.11628165 14.25 9.4375 C20.53373892 13.30441626 24.08922364 18.97246323 26 26 C26.3158544 29.2860472 26.3514347 32.55968149 26.37109375 35.859375 C26.38012222 36.80379456 26.3891507 37.74821411 26.39845276 38.72125244 C26.41292015 40.71485239 26.42183324 42.70849944 26.42553711 44.70214844 C26.43740871 47.72674133 26.48660814 50.74927596 26.53710938 53.7734375 C26.70474276 73.63943378 26.70474276 73.63943378 19.3371582 81.85400391 C13.32537742 87.85191349 5.31427239 92.11658332 -1.83251953 96.62451172 C-3.87738439 97.92218784 -5.90801657 99.2388773 -7.93359375 100.56640625 C-26.5485498 112.7501151 -26.5485498 112.7501151 -36 112 C-42.25486964 110.178962 -47.43782249 107.68223481 -52 103 C-52 102.01 -52 101.02 -52 100 C-51.175 99.63390625 -50.35 99.2678125 -49.5 98.890625 C-38.05129284 93.52404352 -28.22628397 86.36466375 -18.65625 78.1328125 C-16 76 -16 76 -14 76 C-14 75.34 -14 74.68 -14 74 C-12.08353485 72.31569571 -10.07263394 70.78754278 -8.04296875 69.2421875 C-1.99266484 62.6018922 -2.51029505 54.28393896 -2.5625 45.8125 C-2.54251953 44.65041016 -2.52253906 43.48832031 -2.50195312 42.29101562 C-2.50259766 41.17017578 -2.50324219 40.04933594 -2.50390625 38.89453125 C-2.50205322 37.88237549 -2.5002002 36.87021973 -2.49829102 35.82739258 C-3.12995834 32.26761677 -4.52884516 30.58928163 -7 28 C-7.66 27.67 -8.32 27.34 -9 27 C-9 26.34 -9 25.68 -9 25 C-10.1446875 24.5978125 -10.1446875 24.5978125 -11.3125 24.1875 C-14 23 -14 23 -15.3203125 21.61328125 C-18.22748746 18.82104112 -21.93782297 17.3185604 -25.50390625 15.5 C-28 14 -28 14 -30 11 C-27.9007236 9.6583797 -25.7962168 8.32663161 -23.6875 7 C-23.09259766 6.6184375 -22.49769531 6.236875 -21.88476562 5.84375 C-17.33984375 3 -17.33984375 3 -14 3 C-14 2.34 -14 1.68 -14 1 C-9.18076635 -1.0481743 -4.99331977 -1.67329333 0 0 Z " fill="#2E7AA6" transform="translate(135,194)"/>
<path d="M0 0 C4.98747237 2.59922418 9.87467865 5.90179044 13.68359375 10.078125 C13.68359375 10.738125 13.68359375 11.398125 13.68359375 12.078125 C12.39388672 12.67947266 12.39388672 12.67947266 11.078125 13.29296875 C-4.48823922 20.77908284 -19.51267877 31.07799563 -31.65625 43.46484375 C-33.31640625 45.078125 -33.31640625 45.078125 -35.31640625 45.078125 C-38.19286742 55.50529673 -38.28541343 65.68659988 -35.31640625 76.078125 C-35.19140625 79.578125 -35.19140625 79.578125 -35.31640625 82.078125 C-42.74828586 80.93475891 -49.96595187 73.96332247 -55.31640625 69.078125 C-55.31640625 68.418125 -55.31640625 67.758125 -55.31640625 67.078125 C-56.30640625 66.748125 -57.29640625 66.418125 -58.31640625 66.078125 C-64.86310698 59.05239739 -65.81051406 53.29173605 -65.55078125 43.7421875 C-65.0989874 36.67914365 -63.64821614 33.01680203 -58.3359375 28.265625 C-53.52692368 24.08678104 -48.40524874 20.766903 -42.94140625 17.515625 C-41.08297624 16.38991223 -39.22489943 15.26361613 -37.3671875 14.13671875 C-36.4901416 13.60804199 -35.6130957 13.07936523 -34.70947266 12.53466797 C-31.81079863 10.77038627 -28.96901177 8.9349608 -26.12890625 7.078125 C-9.18527072 -3.65552089 -9.18527072 -3.65552089 0 0 Z " fill="#3485B1" transform="translate(110.31640625,178.921875)"/>
<path d="M0 0 C2.65420359 1.57646169 5.08477873 3.31410417 7.546875 5.17578125 C9.72414201 6.79486357 11.88713852 8.11628165 14.25 9.4375 C19.14079269 12.41364159 22.45844022 16.91688044 25 22 C25.08918777 23.38909304 25.11759541 24.78236907 25.11352539 26.17431641 C25.11344986 27.03505768 25.11337433 27.89579895 25.11329651 28.78262329 C25.10813522 29.71287323 25.10297394 30.64312317 25.09765625 31.6015625 C25.0962413 32.55316254 25.09482635 33.50476257 25.09336853 34.48519897 C25.08776012 37.53183097 25.07520619 40.57839013 25.0625 43.625 C25.05748608 45.68749894 25.05292299 47.74999903 25.04882812 49.8125 C25.03778796 54.87502817 25.02051767 59.93750173 25 65 C21.93068573 62.03036949 19.90847893 59.3280125 17.875 55.5625 C12.40178988 45.93719944 4.84113601 32.70880969 -6 29 C-6.99 28.34 -7.98 27.68 -9 27 C-9 26.34 -9 25.68 -9 25 C-9.763125 24.731875 -10.52625 24.46375 -11.3125 24.1875 C-14 23 -14 23 -15.3203125 21.61328125 C-18.22748746 18.82104112 -21.93782297 17.3185604 -25.50390625 15.5 C-28 14 -28 14 -30 11 C-27.9007236 9.6583797 -25.7962168 8.32663161 -23.6875 7 C-23.09259766 6.6184375 -22.49769531 6.236875 -21.88476562 5.84375 C-17.33984375 3 -17.33984375 3 -14 3 C-14 2.34 -14 1.68 -14 1 C-9.18076635 -1.0481743 -4.99331977 -1.67329333 0 0 Z " fill="#165A82" transform="translate(135,194)"/>
<path d="M0 0 C1.37478516 0.01740234 1.37478516 0.01740234 2.77734375 0.03515625 C3.69644531 0.04417969 4.61554688 0.05320313 5.5625 0.0625 C6.27277344 0.07410156 6.98304688 0.08570313 7.71484375 0.09765625 C8.23433594 1.14824219 8.75382813 2.19882813 9.2890625 3.28125 C12.94332418 10.64588486 16.62704158 17.9611758 20.71484375 25.09765625 C20.70324219 23.79570312 20.69164062 22.49375 20.6796875 21.15234375 C20.67030402 19.42578269 20.66120441 17.69922007 20.65234375 15.97265625 C20.64396484 15.11671875 20.63558594 14.26078125 20.62695312 13.37890625 C20.60946069 8.83087214 20.78292017 4.57382461 21.71484375 0.09765625 C25.01484375 0.09765625 28.31484375 0.09765625 31.71484375 0.09765625 C32.99275789 5.00499885 32.85890736 9.85456367 32.84765625 14.88671875 C32.84861298 15.82695892 32.8495697 16.7671991 32.85055542 17.7359314 C32.85123434 19.71783516 32.84940014 21.69974117 32.84521484 23.68164062 C32.83985056 26.71880053 32.84517573 29.75581336 32.8515625 32.79296875 C32.8509019 34.72005241 32.84962112 36.64713598 32.84765625 38.57421875 C32.84968048 39.48362213 32.85170471 40.39302551 32.85379028 41.32998657 C32.84906204 42.5967775 32.84906204 42.5967775 32.84423828 43.88916016 C32.84344269 44.63130768 32.84264709 45.3734552 32.84182739 46.13809204 C32.71484375 48.09765625 32.71484375 48.09765625 31.71484375 51.09765625 C28.08484375 51.09765625 24.45484375 51.09765625 20.71484375 51.09765625 C19.66683594 48.87595703 19.66683594 48.87595703 18.59765625 46.609375 C17.67850874 44.66791036 16.75923114 42.72650731 15.83984375 40.78515625 C15.37964844 39.80869141 14.91945312 38.83222656 14.4453125 37.82617188 C14.00058594 36.88837891 13.55585938 35.95058594 13.09765625 34.984375 C12.68918457 34.12030029 12.28071289 33.25622559 11.85986328 32.3659668 C10.67895693 29.91356705 10.67895693 29.91356705 8.71484375 27.09765625 C8.6897876 27.75362793 8.66473145 28.40959961 8.63891602 29.08544922 C8.52311115 32.04805808 8.40031489 35.01033656 8.27734375 37.97265625 C8.23802734 39.00519531 8.19871094 40.03773438 8.15820312 41.1015625 C8.11630859 42.08769531 8.07441406 43.07382812 8.03125 44.08984375 C7.99459229 45.0010498 7.95793457 45.91225586 7.92016602 46.85107422 C7.71484375 49.09765625 7.71484375 49.09765625 6.71484375 51.09765625 C3.41484375 51.09765625 0.11484375 51.09765625 -3.28515625 51.09765625 C-3.30979781 43.99520117 -3.32798825 36.89277074 -3.34008789 29.7902832 C-3.34512974 27.37198453 -3.35196303 24.95368892 -3.3605957 22.53540039 C-3.37266782 19.06786342 -3.37838588 15.60036659 -3.3828125 12.1328125 C-3.38797379 11.04428482 -3.39313507 9.95575714 -3.39845276 8.83424377 C-3.39852829 7.83328171 -3.39860382 6.83231964 -3.39868164 5.80102539 C-3.40090225 4.91500137 -3.40312286 4.02897736 -3.40541077 3.11610413 C-3.2323293 0.21096658 -2.91257551 0.12446904 0 0 Z " fill="#204763" transform="translate(183.28515625,214.90234375)"/>
<path d="M0 0 C5.5277482 3.18106264 8.25225258 7.25398855 10.1875 13.2265625 C12.75432321 23.19497868 12.464137 33.39870852 7.1953125 42.37890625 C4.35935476 46.63702569 1.43006653 49.48815491 -3.4921875 51.12890625 C-9.70892979 51.63639542 -15.26008163 51.90088955 -20.4921875 48.12890625 C-27.67878927 41.27132962 -28.89437064 34.33047599 -29.45703125 24.6015625 C-29.5324565 17.15122373 -27.61958377 10.37654033 -23.4921875 4.12890625 C-17.21695579 -1.84021659 -8.16568199 -2.85414903 0 0 Z M-15.76171875 11.5234375 C-18.02746963 16.24417805 -18.04675725 20.02900779 -17.9296875 25.19140625 C-17.93677734 26.07634766 -17.94386719 26.96128906 -17.95117188 27.87304688 C-17.9043437 32.67473562 -17.80855532 36.35927631 -14.4921875 40.12890625 C-11.84529487 41.38036594 -9.38237133 41.5289122 -6.4921875 41.12890625 C-3.75152526 38.97136364 -2.04822248 37.2409762 -0.4921875 34.12890625 C-0.31375263 31.21837022 -0.2144419 28.35382467 -0.1796875 25.44140625 C-0.13618164 24.25514648 -0.13618164 24.25514648 -0.09179688 23.04492188 C-0.02937603 17.23018026 -1.22539553 13.94210862 -4.4921875 9.12890625 C-5.90498456 8.9658912 -7.32326878 8.85002655 -8.7421875 8.75390625 C-9.53109375 8.68429688 -10.32 8.6146875 -11.1328125 8.54296875 C-13.7471169 8.96736168 -13.7471169 8.96736168 -15.76171875 11.5234375 Z " fill="#284D67" transform="translate(282.4921875,215.87109375)"/>
<path d="M0 0 C3.72755198 1.24251733 5.27400351 3.20751579 8 6 C8.763125 6.556875 9.52625 7.11375 10.3125 7.6875 C11.1478125 8.3371875 11.1478125 8.3371875 12 9 C12 9.66 12 10.32 12 11 C12.66 11.20625 13.32 11.4125 14 11.625 C16.63829173 12.83421704 18.32784816 13.96787682 20.5625 15.75 C25.63565527 19.67146336 31.24146305 22.23818005 37 25 C39.10483066 26.08204269 41.20901267 27.16534821 43.3125 28.25 C47.50862339 30.35633264 51.42625669 31.96051288 56 33 C53.10568477 39.95232422 45.11973685 43.05968899 38.8125 46.5 C37.84957031 47.0259375 36.88664062 47.551875 35.89453125 48.09375 C32.08859956 49.28535074 30.59152899 48.66782199 27 47 C24.6250632 45.61212075 22.34607473 44.20894649 20.0625 42.6875 C19.45003418 42.28523193 18.83756836 41.88296387 18.20654297 41.46850586 C16.46564844 40.32018237 14.73200175 39.16167644 13 38 C12.18660156 37.46117187 11.37320313 36.92234375 10.53515625 36.3671875 C8.98038186 35.30523526 7.48050734 34.16325577 6 33 C6 32.34 6 31.68 6 31 C5.34 31 4.68 31 4 31 C3.34642722 29.77493102 2.70251767 28.54470484 2.0625 27.3125 C1.70285156 26.62800781 1.34320313 25.94351562 0.97265625 25.23828125 C-1.20796064 20.22023515 -1.15429083 15.20689501 -1.125 9.8125 C-1.12886719 9.08869141 -1.13273437 8.36488281 -1.13671875 7.61914062 C-1.12673611 2.25347222 -1.12673611 2.25347222 0 0 Z " fill="#19587E" transform="translate(46,244)"/>
<path d="M0 0 C0.721875 0.00257813 1.44375 0.00515625 2.1875 0.0078125 C2.909375 0.00523437 3.63125 0.00265625 4.375 0 C6.1875 0.1328125 6.1875 0.1328125 7.1875 1.1328125 C7.27401611 2.54851373 7.29454904 3.9684075 7.28515625 5.38671875 C7.28193359 6.24072266 7.27871094 7.09472656 7.27539062 7.97460938 C7.26701172 8.87244141 7.25863281 9.77027344 7.25 10.6953125 C7.24548828 11.59701172 7.24097656 12.49871094 7.23632812 13.42773438 C7.22450244 15.66278839 7.20656638 17.89780852 7.1875 20.1328125 C11.4775 20.1328125 15.7675 20.1328125 20.1875 20.1328125 C20.17589844 18.77285156 20.16429687 17.41289062 20.15234375 16.01171875 C20.14296738 14.2395847 20.13386702 12.46744917 20.125 10.6953125 C20.11662109 9.79748047 20.10824219 8.89964844 20.09960938 7.97460938 C20.09477539 6.69360352 20.09477539 6.69360352 20.08984375 5.38671875 C20.08198853 4.20057983 20.08198853 4.20057983 20.07397461 2.99047852 C20.1875 1.1328125 20.1875 1.1328125 21.1875 0.1328125 C23 0 23 0 25.1875 0.0078125 C25.909375 0.00523437 26.63125 0.00265625 27.375 0 C29.1875 0.1328125 29.1875 0.1328125 30.1875 1.1328125 C30.28076716 2.69828298 30.30495582 4.26794022 30.30102539 5.83618164 C30.30094986 6.83714371 30.30087433 7.83810577 30.30079651 8.86940002 C30.29563522 9.9579277 30.29047394 11.04645538 30.28515625 12.16796875 C30.2837413 13.27635605 30.28232635 14.38474335 30.28086853 15.52671814 C30.27525033 19.08294319 30.26269475 22.63910633 30.25 26.1953125 C30.24498734 28.59960847 30.24042403 31.00390542 30.23632812 33.40820312 C30.22527499 39.31643027 30.20799816 45.22461087 30.1875 51.1328125 C26.8875 51.1328125 23.5875 51.1328125 20.1875 51.1328125 C20.1875 44.2028125 20.1875 37.2728125 20.1875 30.1328125 C15.8975 30.1328125 11.6075 30.1328125 7.1875 30.1328125 C7.1875 37.0628125 7.1875 43.9928125 7.1875 51.1328125 C3.8875 51.1328125 0.5875 51.1328125 -2.8125 51.1328125 C-2.83714156 44.03035742 -2.855332 36.92792699 -2.86743164 29.82543945 C-2.87247349 27.40714078 -2.87930678 24.98884517 -2.88793945 22.57055664 C-2.90001157 19.10301967 -2.90572963 15.63552284 -2.91015625 12.16796875 C-2.91531754 11.07944107 -2.92047882 9.99091339 -2.92579651 8.86940002 C-2.92587204 7.86843796 -2.92594757 6.86747589 -2.92602539 5.83618164 C-2.928246 4.95015762 -2.93046661 4.06413361 -2.93275452 3.15126038 C-2.77798278 0.55344789 -2.60037713 0.19054488 0 0 Z " fill="#1F455F" transform="translate(404.8125,214.8671875)"/>
<path d="M0 0 C3.44992341 3.77335373 5.1692845 6.33590528 5.1875 11.5 C5.0946875 13.3253125 5.0946875 13.3253125 5 15.1875 C-2.43277311 16.52783613 -2.43277311 16.52783613 -4.875 15.0625 C-6.20433511 12.84694148 -7.14426743 10.62304655 -8 8.1875 C-9.258125 8.105 -10.51625 8.0225 -11.8125 7.9375 C-12.52019531 7.89109375 -13.22789062 7.8446875 -13.95703125 7.796875 C-16.13709965 8.02197666 -16.13709965 8.02197666 -17.7109375 9.82421875 C-21.56750882 16.89459951 -20.14996971 26.4179088 -18.765625 34.04296875 C-18.11372959 36.54292157 -18.11372959 36.54292157 -15 38.1875 C-11.5896024 38.40064985 -9.25468201 38.272394 -6 37.1875 C-5.67 34.8775 -5.34 32.5675 -5 30.1875 C-3.54257537 30.10653197 -2.08387193 30.04832226 -0.625 30 C0.18710937 29.96519531 0.99921875 29.93039063 1.8359375 29.89453125 C2.55007813 29.99121094 3.26421875 30.08789062 4 30.1875 C6 33.1875 6 33.1875 5.71484375 35.2734375 C3.75271394 41.05136748 1.58092473 44.98445283 -3.796875 48.29296875 C-8.77081849 50.31253091 -15.04752437 50.02954179 -20.1640625 48.5703125 C-25.07946298 46.12343913 -27.63764843 41.94148848 -30 37.1875 C-32.91359129 28.44672612 -32.81115199 14.37317797 -28.8125 6.0625 C-25.87453108 1.50329894 -22.84572448 -1.00038123 -17.875 -3.1875 C-11.51597204 -4.21314967 -5.54594574 -3.35067555 0 0 Z " fill="#284C65" transform="translate(392,217.8125)"/>
<path d="M0 0 C1.11697266 -0.00128906 2.23394531 -0.00257813 3.38476562 -0.00390625 C4.55587891 -0.00003906 5.72699219 0.00382813 6.93359375 0.0078125 C8.10857422 0.00394531 9.28355469 0.00007812 10.49414062 -0.00390625 C12.16766602 -0.00197266 12.16766602 -0.00197266 13.875 0 C14.90439697 0.00112793 15.93379395 0.00225586 16.99438477 0.00341797 C19.37109375 0.1328125 19.37109375 0.1328125 20.37109375 1.1328125 C20.37109375 4.1028125 20.37109375 7.0728125 20.37109375 10.1328125 C14.43109375 10.1328125 8.49109375 10.1328125 2.37109375 10.1328125 C2.37109375 13.4328125 2.37109375 16.7328125 2.37109375 20.1328125 C3.97791016 20.11541016 3.97791016 20.11541016 5.6171875 20.09765625 C7.01432118 20.08827951 8.41145674 20.07917919 9.80859375 20.0703125 C10.51564453 20.06193359 11.22269531 20.05355469 11.95117188 20.04492188 C13.75802934 20.03627662 15.56496978 20.08061239 17.37109375 20.1328125 C18.37109375 21.1328125 18.37109375 21.1328125 18.50390625 22.9453125 C18.50132812 23.6671875 18.49875 24.3890625 18.49609375 25.1328125 C18.49996094 26.215625 18.49996094 26.215625 18.50390625 27.3203125 C18.37109375 29.1328125 18.37109375 29.1328125 17.37109375 30.1328125 C14.84059973 30.20594817 12.33804538 30.22528777 9.80859375 30.1953125 C9.09767578 30.19080078 8.38675781 30.18628906 7.65429688 30.18164062 C5.89319362 30.16982114 4.13213339 30.15188513 2.37109375 30.1328125 C2.37109375 34.0928125 2.37109375 38.0528125 2.37109375 42.1328125 C8.31109375 42.1328125 14.25109375 42.1328125 20.37109375 42.1328125 C20.70109375 45.1028125 21.03109375 48.0728125 21.37109375 51.1328125 C11.80109375 51.1328125 2.23109375 51.1328125 -7.62890625 51.1328125 C-7.62890625 34.6328125 -7.62890625 18.1328125 -7.62890625 1.1328125 C-4.98062446 -0.1913284 -2.96210513 0.00324208 0 0 Z " fill="#093554" transform="translate(448.62890625,214.8671875)"/>
<path d="M0 0 C1.17111328 -0.01224609 2.34222656 -0.02449219 3.54882812 -0.03710938 C4.66580078 -0.03904297 5.78277344 -0.04097656 6.93359375 -0.04296875 C7.96411865 -0.04707764 8.99464355 -0.05118652 10.05639648 -0.05541992 C12.5625 0.1875 12.5625 0.1875 14.5625 2.1875 C14.89583333 7.52083333 14.89583333 7.52083333 13.5625 10.1875 C7.9525 10.1875 2.3425 10.1875 -3.4375 10.1875 C-3.4375 13.4875 -3.4375 16.7875 -3.4375 20.1875 C-1.83068359 20.17009766 -1.83068359 20.17009766 -0.19140625 20.15234375 C1.20572743 20.14296701 2.60286299 20.13386669 4 20.125 C4.70705078 20.11662109 5.41410156 20.10824219 6.14257812 20.09960938 C7.94943559 20.09096412 9.75637603 20.13529989 11.5625 20.1875 C12.5625 21.1875 12.5625 21.1875 12.66015625 23.25390625 C12.62760417 25.56510417 12.59505208 27.87630208 12.5625 30.1875 C7.2825 30.1875 2.0025 30.1875 -3.4375 30.1875 C-3.4375 34.1475 -3.4375 38.1075 -3.4375 42.1875 C-1.61412109 42.17009766 -1.61412109 42.17009766 0.24609375 42.15234375 C1.83072764 42.14296722 3.41536318 42.13386687 5 42.125 C5.80244141 42.11662109 6.60488281 42.10824219 7.43164062 42.09960938 C9.47545221 42.0909857 11.51933902 42.1352185 13.5625 42.1875 C14.5625 43.1875 14.5625 43.1875 14.5625 51.1875 C5.3225 51.1875 -3.9175 51.1875 -13.4375 51.1875 C-13.46040307 44.08500243 -13.48033197 36.98263197 -13.49243164 29.88012695 C-13.49747349 27.46182828 -13.50430678 25.04353267 -13.51293945 22.62524414 C-13.52501157 19.15770717 -13.53072963 15.69021034 -13.53515625 12.22265625 C-13.54031754 11.13412857 -13.54547882 10.04560089 -13.55079651 8.92408752 C-13.55087204 7.92312546 -13.55094757 6.92216339 -13.55102539 5.89086914 C-13.553246 5.00484512 -13.55546661 4.11882111 -13.55775452 3.20594788 C-13.23420459 -2.22477264 -4.05148519 0.00222243 0 0 Z " fill="#284D67" transform="translate(235.4375,214.8125)"/>
<path d="M0 0 C8.58 0 17.16 0 26 0 C28 5 28 5 27 10 C21.39 10 15.78 10 10 10 C10 13.3 10 16.6 10 20 C11.60681641 19.98259766 11.60681641 19.98259766 13.24609375 19.96484375 C14.64322743 19.95546701 16.04036299 19.94636669 17.4375 19.9375 C18.14455078 19.92912109 18.85160156 19.92074219 19.58007812 19.91210938 C21.38693559 19.90346412 23.19387603 19.94779989 25 20 C26 21 26 21 26.1328125 22.8125 C26.13023437 23.534375 26.12765625 24.25625 26.125 25 C26.12886719 26.0828125 26.12886719 26.0828125 26.1328125 27.1875 C26 29 26 29 25 30 C22.46950598 30.07313567 19.96695163 30.09247527 17.4375 30.0625 C16.72658203 30.05798828 16.01566406 30.05347656 15.28320312 30.04882812 C13.52209987 30.03700864 11.76103964 30.01907263 10 30 C10 33.96 10 37.92 10 42 C15.94 42 21.88 42 28 42 C28 44.97 28 47.94 28 51 C18.43 51 8.86 51 -1 51 C-0.67 34.17 -0.34 17.34 0 0 Z " fill="#0E3B59" transform="translate(330,215)"/>
<path d="M0 0 C4.25414623 -0.02465622 8.50825498 -0.04283899 12.76245117 -0.05493164 C14.21070073 -0.05997101 15.65894517 -0.06680253 17.10717773 -0.07543945 C19.18474588 -0.08752247 21.26224697 -0.09323211 23.33984375 -0.09765625 C24.59144287 -0.10289307 25.84304199 -0.10812988 27.13256836 -0.11352539 C30 0 30 0 31 1 C31.14193337 4.00331018 31.04236378 6.99217134 31 10 C27.37 10 23.74 10 20 10 C20 23.53 20 37.06 20 51 C16.7 51 13.4 51 10 51 C8.69713062 47.09139187 8.98646724 43.45657086 9.12109375 39.39453125 C9.14470474 38.55532639 9.16831573 37.71612152 9.19264221 36.85148621 C9.26920276 34.1716488 9.35325981 31.49210593 9.4375 28.8125 C9.49072831 26.99545711 9.54346866 25.17839986 9.59570312 23.36132812 C9.72480762 18.90736565 9.86063571 14.45365278 10 10 C6.7 10 3.4 10 0 10 C0 6.7 0 3.4 0 0 Z " fill="#093553" transform="translate(295,215)"/>
<path d="M0 0 C8.58 0 17.16 0 26 0 C28 5 28 5 27 10 C21.39 10 15.78 10 10 10 C10 13.3 10 16.6 10 20 C11.60681641 19.98259766 11.60681641 19.98259766 13.24609375 19.96484375 C14.64322743 19.95546701 16.04036299 19.94636669 17.4375 19.9375 C18.14455078 19.92912109 18.85160156 19.92074219 19.58007812 19.91210938 C21.38693559 19.90346412 23.19387603 19.94779989 25 20 C26 21 26 21 26.09765625 22.84765625 C26.06510417 24.8984375 26.03255208 26.94921875 26 29 C25.67 29 25.34 29 25 29 C25 26.69 25 24.38 25 22 C23.39318359 22.01740234 23.39318359 22.01740234 21.75390625 22.03515625 C20.35677257 22.04453299 18.95963701 22.05363331 17.5625 22.0625 C16.85544922 22.07087891 16.14839844 22.07925781 15.41992188 22.08789062 C13.61306441 22.09653588 11.80612397 22.05220011 10 22 C9 21 9 21 8.90234375 17.83984375 C8.95117188 12.41992188 8.95117188 12.41992188 9 7 C13.95 7 18.9 7 24 7 C24 5.35 24 3.7 24 2 C16.41 2 8.82 2 1 2 C1 17.84 1 33.68 1 50 C9.58 50 18.16 50 27 50 C27 47.69 27 45.38 27 43 C21.39 43 15.78 43 10 43 C10 42.67 10 42.34 10 42 C15.94 42 21.88 42 28 42 C28 44.97 28 47.94 28 51 C18.43 51 8.86 51 -1 51 C-0.67 34.17 -0.34 17.34 0 0 Z " fill="#808C96" transform="translate(330,215)"/>
<path d="M0 0 C1.11697266 -0.00128906 2.23394531 -0.00257813 3.38476562 -0.00390625 C4.55587891 -0.00003906 5.72699219 0.00382813 6.93359375 0.0078125 C8.10857422 0.00394531 9.28355469 0.00007812 10.49414062 -0.00390625 C12.16766602 -0.00197266 12.16766602 -0.00197266 13.875 0 C14.90439697 0.00112793 15.93379395 0.00225586 16.99438477 0.00341797 C19.37109375 0.1328125 19.37109375 0.1328125 20.37109375 1.1328125 C20.37109375 4.1028125 20.37109375 7.0728125 20.37109375 10.1328125 C14.43109375 10.1328125 8.49109375 10.1328125 2.37109375 10.1328125 C2.37109375 9.8028125 2.37109375 9.4728125 2.37109375 9.1328125 C7.98109375 9.1328125 13.59109375 9.1328125 19.37109375 9.1328125 C19.37109375 6.8228125 19.37109375 4.5128125 19.37109375 2.1328125 C18.02917969 2.24109375 18.02917969 2.24109375 16.66015625 2.3515625 C15.45101563 2.444375 14.241875 2.5371875 12.99609375 2.6328125 C11.22105469 2.77203125 11.22105469 2.77203125 9.41015625 2.9140625 C4.7367496 3.1671677 0.05134929 3.1328125 -4.62890625 3.1328125 C-4.62890625 18.3128125 -4.62890625 33.4928125 -4.62890625 49.1328125 C-5.61890625 49.6278125 -5.61890625 49.6278125 -6.62890625 50.1328125 C1.95109375 50.1328125 10.53109375 50.1328125 19.37109375 50.1328125 C19.37109375 47.8228125 19.37109375 45.5128125 19.37109375 43.1328125 C13.76109375 43.1328125 8.15109375 43.1328125 2.37109375 43.1328125 C2.37109375 42.8028125 2.37109375 42.4728125 2.37109375 42.1328125 C8.31109375 42.1328125 14.25109375 42.1328125 20.37109375 42.1328125 C20.70109375 45.1028125 21.03109375 48.0728125 21.37109375 51.1328125 C11.80109375 51.1328125 2.23109375 51.1328125 -7.62890625 51.1328125 C-7.62890625 34.6328125 -7.62890625 18.1328125 -7.62890625 1.1328125 C-4.98062446 -0.1913284 -2.96210513 0.00324208 0 0 Z " fill="#657785" transform="translate(448.62890625,214.8671875)"/>
<path d="M0 0 C4.25414623 -0.02465622 8.50825498 -0.04283899 12.76245117 -0.05493164 C14.21070073 -0.05997101 15.65894517 -0.06680253 17.10717773 -0.07543945 C19.18474588 -0.08752247 21.26224697 -0.09323211 23.33984375 -0.09765625 C24.59144287 -0.10289307 25.84304199 -0.10812988 27.13256836 -0.11352539 C30 0 30 0 31 1 C31.14193337 4.00331018 31.04236378 6.99217134 31 10 C27.37 10 23.74 10 20 10 C20 9.67 20 9.34 20 9 C23.3 9 26.6 9 30 9 C30 6.69 30 4.38 30 2 C20.43 2 10.86 2 1 2 C1 3.98 1 5.96 1 8 C1.95712891 7.98259766 1.95712891 7.98259766 2.93359375 7.96484375 C4.17302734 7.95130859 4.17302734 7.95130859 5.4375 7.9375 C6.26121094 7.92589844 7.08492188 7.91429687 7.93359375 7.90234375 C10 8 10 8 11 9 C11.1603556 12.02807044 11.25960448 15.03585454 11.31640625 18.06640625 C11.33718735 18.97502914 11.35796844 19.88365204 11.37937927 20.81980896 C11.44497672 23.73395946 11.5038068 26.64820304 11.5625 29.5625 C11.60567554 31.53321291 11.64928951 33.50391626 11.69335938 35.47460938 C11.80066843 40.31630988 11.90190675 45.15810437 12 50 C14.64 50 17.28 50 20 50 C20 50.33 20 50.66 20 51 C16.7 51 13.4 51 10 51 C8.69713062 47.09139187 8.98646724 43.45657086 9.12109375 39.39453125 C9.14470474 38.55532639 9.16831573 37.71612152 9.19264221 36.85148621 C9.26920276 34.1716488 9.35325981 31.49210593 9.4375 28.8125 C9.49072831 26.99545711 9.54346866 25.17839986 9.59570312 23.36132812 C9.72480762 18.90736565 9.86063571 14.45365278 10 10 C6.7 10 3.4 10 0 10 C0 6.7 0 3.4 0 0 Z " fill="#75838E" transform="translate(295,215)"/>
<path d="M0 0 C3.3 0 6.6 0 10 0 C10.33 0.66 10.66 1.32 11 2 C11.33 1.34 11.66 0.68 12 0 C15 1 15 1 16 3 C16.33 2.01 16.66 1.02 17 0 C17.99 0.33 18.98 0.66 20 1 C19.34 3.97 18.68 6.94 18 10 C16.68 10 15.36 10 14 10 C13.67 9.34 13.34 8.68 13 8 C12.67 8.66 12.34 9.32 12 10 C11.01 10 10.02 10 9 10 C8.34 7.69 7.68 5.38 7 3 C5.68 2.67 4.36 2.34 3 2 C3 2.66 3 3.32 3 4 C3.99 4 4.98 4 6 4 C6 4.66 6 5.32 6 6 C5.01 6 4.02 6 3 6 C3 6.66 3 7.32 3 8 C4.32 8 5.64 8 7 8 C7 8.66 7 9.32 7 10 C4.69 10 2.38 10 0 10 C0 6.7 0 3.4 0 0 Z " fill="#78B6E4" transform="translate(247,279)"/>
<path d="M0 0 C0.33 0 0.66 0 1 0 C1 16.17 1 32.34 1 49 C3.64 49 6.28 49 9 49 C9 39.43 9 29.86 9 20 C9.99 20.33 10.98 20.66 12 21 C11.86164197 25.45859862 11.71305421 29.91679786 11.5625 34.375 C11.52318359 35.64601562 11.48386719 36.91703125 11.44335938 38.2265625 C11.40146484 39.43828125 11.35957031 40.65 11.31640625 41.8984375 C11.26141968 43.57945557 11.26141968 43.57945557 11.20532227 45.29443359 C11 48 11 48 10 50 C6.7 50 3.4 50 0 50 C0 33.5 0 17 0 0 Z " fill="#999FA5" transform="translate(180,216)"/>
<path d="M0 0 C0.66 0 1.32 0 2 0 C2 14.19 2 28.38 2 43 C1.01 42.34 0.02 41.68 -1 41 C-1.19501281 37.87175721 -1.20564503 34.95470322 -1.07421875 31.8359375 C-1.04777786 30.92872955 -1.02133698 30.02152161 -0.99409485 29.08682251 C-0.90615109 26.18222562 -0.79706582 23.27885399 -0.6875 20.375 C-0.62425998 18.40889842 -0.56239331 16.44275214 -0.50195312 14.4765625 C-0.35058122 9.65037829 -0.18024223 4.82518878 0 0 Z " fill="#305E7D" transform="translate(158,216)"/>
<path d="M0 0 C1.32 0.33 2.64 0.66 4 1 C4.99 0.67 5.98 0.34 7 0 C7.33 0.66 7.66 1.32 8 2 C9.32 1.34 10.64 0.68 12 0 C11.67 2.97 11.34 5.94 11 9 C9.68 9.33 8.36 9.66 7 10 C7 9.01 7 8.02 7 7 C6.34 7 5.68 7 5 7 C5 7.99 5 8.98 5 10 C3.68 9.67 2.36 9.34 1 9 C0.67 6.03 0.34 3.06 0 0 Z " fill="#6AA7DC" transform="translate(270,279)"/>
<path d="M0 0 C2.47923801 -0.02685095 4.9581884 -0.04676547 7.4375 -0.0625 C8.14455078 -0.07087891 8.85160156 -0.07925781 9.58007812 -0.08789062 C11.38693559 -0.09653588 13.19387603 -0.05220011 15 0 C16 1 16 1 16.1328125 2.8125 C16.13023437 3.534375 16.12765625 4.25625 16.125 5 C16.12886719 6.0828125 16.12886719 6.0828125 16.1328125 7.1875 C16 9 16 9 15 10 C12.30345146 10.07319621 9.63308542 10.09242537 6.9375 10.0625 C5.79958008 10.05573242 5.79958008 10.05573242 4.63867188 10.04882812 C2.75908129 10.0370068 0.87953101 10.01907078 -1 10 C-1 9.34 -1 8.68 -1 8 C3.95 8 8.9 8 14 8 C14 6.02 14 4.04 14 2 C9.38 2 4.76 2 0 2 C0 1.34 0 0.68 0 0 Z " fill="#76838D" transform="translate(451,235)"/>
<path d="M0 0 C1.32 0.33 2.64 0.66 4 1 C4.33 1.66 4.66 2.32 5 3 C5.33 2.01 5.66 1.02 6 0 C6.99 0 7.98 0 9 0 C9 3.3 9 6.6 9 10 C5 9 5 9 4 8 C3.67 8.66 3.34 9.32 3 10 C2.01 10 1.02 10 0 10 C0 6.7 0 3.4 0 0 Z " fill="#7DA5D6" transform="translate(316,279)"/>
<path d="M0 0 C1.32 0.33 2.64 0.66 4 1 C6.21081851 1.10540926 6.21081851 1.10540926 9 0 C9 3.3 9 6.6 9 10 C7.68 9.67 6.36 9.34 5 9 C4.67 8.34 4.34 7.68 4 7 C3.67 7.99 3.34 8.98 3 10 C2.01 10 1.02 10 0 10 C0 6.7 0 3.4 0 0 Z " fill="#7DBEE9" transform="translate(236,279)"/>
<path d="M0 0 C0.78375 0.04125 1.5675 0.0825 2.375 0.125 C2.705 1.115 3.035 2.105 3.375 3.125 C1.725 3.455 0.075 3.785 -1.625 4.125 C-1.295 5.115 -0.965 6.105 -0.625 7.125 C-0.625 6.135 -0.625 5.145 -0.625 4.125 C1.025 4.455 2.675 4.785 4.375 5.125 C4.375 6.775 4.375 8.425 4.375 10.125 C1.5625 10.75 1.5625 10.75 -1.625 11.125 C-2.615 10.465 -3.605 9.805 -4.625 9.125 C-4.9375 5.625 -4.9375 5.625 -4.625 2.125 C-2.625 0.125 -2.625 0.125 0 0 Z " fill="#787EBB" transform="translate(408.625,278.875)"/>
<path d="M0 0 C0.99 0 1.98 0 3 0 C3 1.32 3 2.64 3 4 C3.99 4 4.98 4 6 4 C6 2.68 6 1.36 6 0 C6.99 0 7.98 0 9 0 C9 3.3 9 6.6 9 10 C8.01 10 7.02 10 6 10 C6 8.68 6 7.36 6 6 C5.01 6 4.02 6 3 6 C3 7.32 3 8.64 3 10 C2.01 10 1.02 10 0 10 C0 6.7 0 3.4 0 0 Z " fill="#849CCE" transform="translate(355,279)"/>
<path d="M0 0 C3.63 0 7.26 0 11 0 C11.33 13.53 11.66 27.06 12 41 C14.64 41 17.28 41 20 41 C20 41.33 20 41.66 20 42 C16.7 42 13.4 42 10 42 C8.69713062 38.09139187 8.98646724 34.45657086 9.12109375 30.39453125 C9.14470474 29.55532639 9.16831573 28.71612152 9.19264221 27.85148621 C9.26920276 25.1716488 9.35325981 22.49210593 9.4375 19.8125 C9.49072831 17.99545711 9.54346866 16.17839986 9.59570312 14.36132812 C9.72480762 9.90736565 9.86063571 5.45365278 10 1 C6.7 1 3.4 1 0 1 C0 0.67 0 0.34 0 0 Z " fill="#70777D" transform="translate(295,224)"/>
<path d="M0 0 C0.804375 0.144375 1.60875 0.28875 2.4375 0.4375 C4.57951526 3.65052289 5.09075876 4.70459281 4.4375 8.4375 C2.1875 10.375 2.1875 10.375 -0.5625 11.4375 C-2.8125 10.9375 -2.8125 10.9375 -4.5625 9.4375 C-5.5 7.0625 -5.5 7.0625 -5.5625 4.4375 C-4.08924014 1.40913251 -3.35144988 0.57219876 0 0 Z M-0.5625 2.4375 C-1.5525 2.9325 -1.5525 2.9325 -2.5625 3.4375 C-2.2325 5.0875 -1.9025 6.7375 -1.5625 8.4375 C-0.5725 8.4375 0.4175 8.4375 1.4375 8.4375 C1.4375 6.7875 1.4375 5.1375 1.4375 3.4375 C0.7775 3.1075 0.1175 2.7775 -0.5625 2.4375 Z " fill="#798BC4" transform="translate(380.5625,278.5625)"/>
<path d="M0 0 C0.804375 0.144375 1.60875 0.28875 2.4375 0.4375 C4.57951526 3.65052289 5.09075876 4.70459281 4.4375 8.4375 C2.1875 10.375 2.1875 10.375 -0.5625 11.4375 C-2.8125 10.9375 -2.8125 10.9375 -4.5625 9.4375 C-5.5 7.0625 -5.5 7.0625 -5.5625 4.4375 C-4.08924014 1.40913251 -3.35144988 0.57219876 0 0 Z M-0.5625 2.4375 C-1.5525 2.9325 -1.5525 2.9325 -2.5625 3.4375 C-2.2325 5.0875 -1.9025 6.7375 -1.5625 8.4375 C-0.5725 8.4375 0.4175 8.4375 1.4375 8.4375 C1.4375 6.7875 1.4375 5.1375 1.4375 3.4375 C0.7775 3.1075 0.1175 2.7775 -0.5625 2.4375 Z " fill="#8691C6" transform="translate(398.5625,278.5625)"/>
<path d="M0 0 C1.875 0.3125 1.875 0.3125 4 1 C4.66 1.99 5.32 2.98 6 4 C6.99 4.33 7.98 4.66 9 5 C9.42925781 5.49113281 9.85851562 5.98226563 10.30078125 6.48828125 C12.74235161 8.66043695 14.98724595 8.74015266 18.1875 9.1875 C19.27417969 9.34605469 20.36085938 9.50460937 21.48046875 9.66796875 C22.31191406 9.77753906 23.14335938 9.88710938 24 10 C23.67 10.66 23.34 11.32 23 12 C15.33595481 12.66643871 8.44099009 10.1698327 2.375 5.4375 C0 3 0 3 0 0 Z " fill="#6B899B" transform="translate(83,294)"/>
<path d="M0 0 C0.99 0 1.98 0 3 0 C3.66 0.99 4.32 1.98 5 3 C5.33 2.01 5.66 1.02 6 0 C6.66 0 7.32 0 8 0 C8 3.3 8 6.6 8 10 C7.01 10 6.02 10 5 10 C4.34 9.01 3.68 8.02 3 7 C2.67 7.99 2.34 8.98 2 10 C1.34 10 0.68 10 0 10 C0 6.7 0 3.4 0 0 Z " fill="#6B85C2" transform="translate(366,279)"/>
<path d="M0 0 C0.33 0 0.66 0 1 0 C1 2.97 1 5.94 1 9 C-4.28 9 -9.56 9 -15 9 C-15 12.96 -15 16.92 -15 21 C-15.33 21 -15.66 21 -16 21 C-16 16.38 -16 11.76 -16 7 C-11.05 7 -6.1 7 -1 7 C-1 5.02 -1 3.04 -1 1 C-0.67 0.67 -0.34 0.34 0 0 Z " fill="#6C7B87" transform="translate(247,236)"/>
<path d="M0 0 C1.32 0.33 2.64 0.66 4 1 C4.66 3.97 5.32 6.94 6 10 C4.02 9.34 2.04 8.68 0 8 C0 8.66 0 9.32 0 10 C-0.99 10 -1.98 10 -3 10 C-2.01 6.7 -1.02 3.4 0 0 Z M1 4 C2 6 2 6 2 6 Z " fill="#67A2D9" transform="translate(285,279)"/>
<path d="M0 0 C-0.33 0.99 -0.66 1.98 -1 3 C-2.32 2.67 -3.64 2.34 -5 2 C-5 3.32 -5 4.64 -5 6 C-3.68 5.67 -2.36 5.34 -1 5 C-1 6.32 -1 7.64 -1 9 C-2.75 9.6875 -2.75 9.6875 -5 10 C-7.25 8.5625 -7.25 8.5625 -9 7 C-8.74438677 4.6568787 -8.40729228 2.32156597 -8 0 C-5.13822943 -1.43088528 -3.06624227 -0.59991697 0 0 Z " fill="#839FD1" transform="translate(354,280)"/>
<path d="M0 0 C1.32 0.33 2.64 0.66 4 1 C4.66 3.97 5.32 6.94 6 10 C4.02 9.34 2.04 8.68 0 8 C0 8.66 0 9.32 0 10 C-0.99 10 -1.98 10 -3 10 C-2.01 6.7 -1.02 3.4 0 0 Z M1 4 C2 6 2 6 2 6 Z " fill="#5DB2E6" transform="translate(226,279)"/>
<path d="M0 0 C0.33 0 0.66 0 1 0 C1.06058594 1.18078125 1.12117188 2.3615625 1.18359375 3.578125 C1.26802582 5.1354277 1.35267249 6.69271879 1.4375 8.25 C1.47681641 9.02730469 1.51613281 9.80460938 1.55664062 10.60546875 C1.59853516 11.35957031 1.64042969 12.11367187 1.68359375 12.890625 C1.72025146 13.58188477 1.75690918 14.27314453 1.79467773 14.98535156 C2.00675524 17.06628329 2.44508677 18.98572422 3 21 C3.66 21 4.32 21 5 21 C6.625 23.5 6.625 23.5 8 26 C4.16681136 25.1481803 3.0223242 24.0307712 0.6875 20.8125 C-2.11261978 14.71546499 -1.50376861 7.54899189 -1 1 C-0.67 0.67 -0.34 0.34 0 0 Z " fill="#66818F" transform="translate(46,218)"/>
<path d="M0 0 C0.99 0 1.98 0 3 0 C3.33 1.65 3.66 3.3 4 5 C4.66 5 5.32 5 6 5 C6.33 3.35 6.66 1.7 7 0 C7.99 0.33 8.98 0.66 10 1 C9.01 3.97 8.02 6.94 7 10 C5.68 10 4.36 10 3 10 C2.01 6.7 1.02 3.4 0 0 Z " fill="#659FD6" transform="translate(290,279)"/>
<path d="M0 0 C1.9375 0.3125 1.9375 0.3125 4 1 C4.33 1.99 4.66 2.98 5 4 C5.99 4.33 6.98 4.66 8 5 C7.67 5.66 7.34 6.32 7 7 C5.68 7.33 4.36 7.66 3 8 C3 13.61 3 19.22 3 25 C2.67 25 2.34 25 2 25 C1.97494385 24.34926514 1.9498877 23.69853027 1.92407227 23.02807617 C1.80806298 20.08101954 1.68535885 17.1342787 1.5625 14.1875 C1.52318359 13.16333984 1.48386719 12.13917969 1.44335938 11.08398438 C1.40146484 10.10107422 1.35957031 9.11816406 1.31640625 8.10546875 C1.26141968 6.74651489 1.26141968 6.74651489 1.20532227 5.36010742 C1.0791795 2.84951218 1.0791795 2.84951218 0 0 Z " fill="#6891A8" transform="translate(131,224)"/>
<path d="M0 0 C2.31 0 4.62 0 7 0 C7 0.66 7 1.32 7 2 C5.35 2 3.7 2 2 2 C2 2.66 2 3.32 2 4 C3.32 4 4.64 4 6 4 C6 4.66 6 5.32 6 6 C4.68 6 3.36 6 2 6 C2 6.66 2 7.32 2 8 C3.65 8 5.3 8 7 8 C7 8.66 7 9.32 7 10 C4.69 10 2.38 10 0 10 C0 6.7 0 3.4 0 0 Z " fill="#658CC8" transform="translate(338,279)"/>
<path d="M0 0 C2.31 0 4.62 0 7 0 C7 0.66 7 1.32 7 2 C5.35 2 3.7 2 2 2 C2 2.66 2 3.32 2 4 C3.32 4 4.64 4 6 4 C6 4.66 6 5.32 6 6 C4.68 6 3.36 6 2 6 C2 6.66 2 7.32 2 8 C3.65 8 5.3 8 7 8 C7 8.66 7 9.32 7 10 C4.69 10 2.38 10 0 10 C0 6.7 0 3.4 0 0 Z " fill="#5E96D1" transform="translate(301,279)"/>
<path d="M0 0 C1.98 0 3.96 0 6 0 C5.01 0.33 4.02 0.66 3 1 C3 1.66 3 2.32 3 3 C3.99 3 4.98 3 6 3 C6 3.66 6 4.32 6 5 C5.01 5 4.02 5 3 5 C3 5.66 3 6.32 3 7 C4.32 7 5.64 7 7 7 C7 7.66 7 8.32 7 9 C4.69 9 2.38 9 0 9 C0 6.03 0 3.06 0 0 Z " fill="#56A7DF" transform="translate(247,280)"/>
<path d="M0 0 C0.66 0 1.32 0 2 0 C2 2.31 2 4.62 2 7 C-3.61 7 -9.22 7 -15 7 C-15 6.34 -15 5.68 -15 5 C-10.05 5 -5.1 5 0 5 C0 3.35 0 1.7 0 0 Z " fill="#193B53" transform="translate(466,217)"/>
<path d="M0 0 C0.99 0.33 1.98 0.66 3 1 C2.34 3.97 1.68 6.94 1 10 C-0.32 10 -1.64 10 -3 10 C-3.59732819 7.23735711 -4 4.83967231 -4 2 C-3.01 2.33 -2.02 2.66 -1 3 C-0.67 2.01 -0.34 1.02 0 0 Z " fill="#81B9E4" transform="translate(264,279)"/>
<path d="M0 0 C0.99 0 1.98 0 3 0 C3 2.64 3 5.28 3 8 C4.32 8 5.64 8 7 8 C7 8.66 7 9.32 7 10 C4.69 10 2.38 10 0 10 C0 6.7 0 3.4 0 0 Z " fill="#8894C8" transform="translate(386,279)"/>
<path d="M0 0 C0.99 0.33 1.98 0.66 3 1 C3 1.66 3 2.32 3 3 C3.66 3 4.32 3 5 3 C5.33 2.01 5.66 1.02 6 0 C6.66 0 7.32 0 8 0 C7.21302675 3.41021743 6.12880057 6.68885166 5 10 C4.34 10 3.68 10 3 10 C0 3.375 0 3.375 0 0 Z " fill="#7D7FBB" transform="translate(413,279)"/>
<path d="M0 0 C2.64 0 5.28 0 8 0 C8 0.66 8 1.32 8 2 C7.01 2 6.02 2 5 2 C5 4.64 5 7.28 5 10 C4.34 10 3.68 10 3 10 C3 7.36 3 4.72 3 2 C2.01 2 1.02 2 0 2 C0 1.34 0 0.68 0 0 Z " fill="#5D8AC8" transform="translate(329,279)"/>
<path d="M0 0 C0.33 0 0.66 0 1 0 C2.33583899 4.84241633 3.25328119 8.93437617 3 14 C0.13275314 13.42655063 -0.8614515 13.1385485 -3 11 C-1.68 11 -0.36 11 1 11 C0.67 10.34 0.34 9.68 0 9 C-0.06950541 7.45976004 -0.08452357 5.91665012 -0.0625 4.375 C-0.05347656 3.55773437 -0.04445313 2.74046875 -0.03515625 1.8984375 C-0.02355469 1.27195313 -0.01195313 0.64546875 0 0 Z " fill="#7D939F" transform="translate(72,247)"/>
<path d="M0 0 C0.99 0.33 1.98 0.66 3 1 C3 3.97 3 6.94 3 10 C2.01 10 1.02 10 0 10 C0 6.7 0 3.4 0 0 Z " fill="#82AAD9" transform="translate(312,279)"/>
<path d="M0 0 C0.66 0 1.32 0 2 0 C2 3.3 2 6.6 2 10 C1.01 10 0.02 10 -1 10 C-1.33 8.35 -1.66 6.7 -2 5 C-1.34 5 -0.68 5 0 5 C0 3.35 0 1.7 0 0 Z " fill="#627ABC" transform="translate(372,279)"/>
<path d="M0 0 C1.0625 1.75 1.0625 1.75 2 4 C1.67 5.32 1.34 6.64 1 8 C-4.94 8 -10.88 8 -17 8 C-17 7.67 -17 7.34 -17 7 C-11.39 7 -5.78 7 0 7 C-0.33 5.35 -0.66 3.7 -1 2 C-0.67 1.34 -0.34 0.68 0 0 Z " fill="#405464" transform="translate(356,216)"/>
<path d="M0 0 C4.03520597 1.58962659 8.01811282 3.28232318 12 5 C11.01 5.66 10.02 6.32 9 7 C9 6.34 9 5.68 9 5 C8.01 5.33 7.02 5.66 6 6 C3.375 4.75 3.375 4.75 1 3 C0.67 2.01 0.34 1.02 0 0 Z " fill="#627F91" transform="translate(81,269)"/>
<path d="M0 0 C0.99 0.33 1.98 0.66 3 1 C2.01 3.97 1.02 6.94 0 10 C-0.33 9.01 -0.66 8.02 -1 7 C-1.66 7 -2.32 7 -3 7 C-3 6.34 -3 5.68 -3 5 C-2.34 5 -1.68 5 -1 5 C-0.67 3.35 -0.34 1.7 0 0 Z " fill="#7DADDC" transform="translate(297,279)"/>
<path d="M0 0 C0.66 0.33 1.32 0.66 2 1 C-1.625 6.875 -1.625 6.875 -5 8 C-5.66 7.34 -6.32 6.68 -7 6 C-4.69 4.02 -2.38 2.04 0 0 Z " fill="#678CA0" transform="translate(115,273)"/>
<path d="M0 0 C0.99 0 1.98 0 3 0 C4.32 2.64 5.64 5.28 7 8 C6.01 8.495 6.01 8.495 5 9 C5 8.34 5 7.68 5 7 C4.34 7 3.68 7 3 7 C0 2.61538462 0 2.61538462 0 0 Z " fill="#5D7585" transform="translate(47,268)"/>
<path d="M0 0 C6.875 0.875 6.875 0.875 8 2 C9.51469448 2.23192865 11.03754562 2.41215238 12.5625 2.5625 C13.38878906 2.64628906 14.21507812 2.73007812 15.06640625 2.81640625 C15.70449219 2.87699219 16.34257812 2.93757813 17 3 C17 3.33 17 3.66 17 4 C5.47835991 4.55353075 5.47835991 4.55353075 0 1 C0 0.67 0 0.34 0 0 Z " fill="#838E96" transform="translate(262,263)"/>
<path d="M0 0 C0.66 0.33 1.32 0.66 2 1 C2.4140625 3.28515625 2.4140625 3.28515625 2.625 6.0625 C2.69976562 6.98160156 2.77453125 7.90070313 2.8515625 8.84765625 C2.92503906 9.91306641 2.92503906 9.91306641 3 11 C2.01 10.67 1.02 10.34 0 10 C-0.95024979 6.30458414 -0.95024979 3.69541586 0 0 Z " fill="#3A5C71" transform="translate(46,257)"/>
<path d="M0 0 C0.66 0 1.32 0 2 0 C1.67 4.29 1.34 8.58 1 13 C0.67 13 0.34 13 0 13 C-0.19466332 11.20909747 -0.38051213 9.41723495 -0.5625 7.625 C-0.66691406 6.62726563 -0.77132813 5.62953125 -0.87890625 4.6015625 C-1 2 -1 2 0 0 Z " fill="#5A6B78" transform="translate(370,230)"/>
<path d="M0 0 C0.66 0 1.32 0 2 0 C2 3.3 2 6.6 2 10 C1.01 10 0.02 10 -1 10 C-0.67 6.7 -0.34 3.4 0 0 Z " fill="#4EA5DF" transform="translate(243,279)"/>
<path d="M0 0 C2.475 0.495 2.475 0.495 5 1 C5 2.65 5 4.3 5 6 C4.01 5.67 3.02 5.34 2 5 C2 4.34 2 3.68 2 3 C1.34 3 0.68 3 0 3 C0 2.01 0 1.02 0 0 Z " fill="#9699C9" transform="translate(408,283)"/>
<path d="M0 0 C0.99 0.33 1.98 0.66 3 1 C3 1.99 3 2.98 3 4 C3.66 4 4.32 4 5 4 C6.625 6.5 6.625 6.5 8 9 C4.68470727 8.01437243 3.25050621 7.34552581 1.1875 4.5 C0 2 0 2 0 0 Z " fill="#68889A" transform="translate(46,235)"/>
<path d="M0 0 C0.66 0.33 1.32 0.66 2 1 C1.6875 2.875 1.6875 2.875 1 5 C-2 7 -2 7 -5 7 C-3.70700306 4.11562221 -2.34058637 2.12780579 0 0 Z " fill="#6C95AB" transform="translate(53,206)"/>
<path d="M0 0 C1.65 0 3.3 0 5 0 C6 3 6 3 5.0625 5.1875 C4.5365625 6.0846875 4.5365625 6.0846875 4 7 C3.731875 6.360625 3.46375 5.72125 3.1875 5.0625 C2.11332248 2.66868314 2.11332248 2.66868314 -1 2 C-0.67 1.34 -0.34 0.68 0 0 Z " fill="#8B9CCD" transform="translate(378,279)"/>
<path d="M0 0 C1.65 0.33 3.3 0.66 5 1 C4.34 2.32 3.68 3.64 3 5 C2.01 5 1.02 5 0 5 C0.33 4.34 0.66 3.68 1 3 C0.34 2.67 -0.32 2.34 -1 2 C-0.67 1.34 -0.34 0.68 0 0 Z " fill="#758E9D" transform="translate(97,276)"/>
<path d="M0 0 C3.68802044 1.22934015 4.72356973 2.93859378 7 6 C1.25 5.125 1.25 5.125 -1 4 C-0.67 2.68 -0.34 1.36 0 0 Z " fill="#637B89" transform="translate(46,244)"/>
<path d="M0 0 C0.66 0 1.32 0 2 0 C2.3125 2.3125 2.3125 2.3125 2 5 C-0.5 6.8125 -0.5 6.8125 -3 8 C-3.33 7.34 -3.66 6.68 -4 6 C-3.01 5.34 -2.02 4.68 -1 4 C-0.27617533 1.94074861 -0.27617533 1.94074861 0 0 Z " fill="#7981BD" transform="translate(401,282)"/>
<path d="M0 0 C0.99 0.33 1.98 0.66 3 1 C2.67 3.64 2.34 6.28 2 9 C0.14223235 5.86501708 -0.20140476 3.62528568 0 0 Z " fill="#81B7E3" transform="translate(270,279)"/>
<path d="M0 0 C4.40114397 0.50298788 6.71195019 2.08772731 10 5 C8.68 5.33 7.36 5.66 6 6 C5.67 5.01 5.34 4.02 5 3 C3.35 2.67 1.7 2.34 0 2 C0 1.34 0 0.68 0 0 Z " fill="#627D8D" transform="translate(64,260)"/>
<path d="M0 0 C1.2065625 0.0309375 1.2065625 0.0309375 2.4375 0.0625 C2.7675 1.0525 3.0975 2.0425 3.4375 3.0625 C1.4575 3.3925 -0.5225 3.7225 -2.5625 4.0625 C-2.8925 3.0725 -3.2225 2.0825 -3.5625 1.0625 C-2.5625 0.0625 -2.5625 0.0625 0 0 Z " fill="#8E94C7" transform="translate(408.5625,278.9375)"/>
<path d="M0 0 C0.66 0.33 1.32 0.66 2 1 C2 2.32 2 3.64 2 5 C2.66 5 3.32 5 4 5 C4 5.99 4 6.98 4 8 C3.01 8 2.02 8 1 8 C0.40267181 5.23735711 0 2.83967231 0 0 Z " fill="#4095D7" transform="translate(260,281)"/>
<path d="M0 0 C1.9375 0.75 1.9375 0.75 4 2 C4.75 4.125 4.75 4.125 5 6 C3.68 5.67 2.36 5.34 1 5 C0.67 3.35 0.34 1.7 0 0 Z " fill="#4A6B7F" transform="translate(154,210)"/>
</svg>
